<?xml version="1.0" standalone="no"?>
<!DOCTYPE svg PUBLIC "-//W3C//DTD SVG 20010904//EN"
 "http://www.w3.org/TR/2001/REC-SVG-20010904/DTD/svg10.dtd">
<svg version="1.0" xmlns="http://www.w3.org/2000/svg"
 width="256.000000pt" height="256.000000pt" viewBox="0 0 256.000000 256.000000"
 preserveAspectRatio="xMidYMid meet">
<metadata>
Created by potrace 1.16, written by Peter Selinger 2001-2019
</metadata>
<g transform="translate(0.000000,256.000000) scale(0.100000,-0.100000)"
fill="#000000" stroke="none">
<path d="M1591 1954 c-12 -15 -21 -33 -21 -41 0 -20 20 -56 36 -66 11 -6 14
-61 14 -272 0 -251 -1 -265 -19 -265 -10 0 -30 11 -45 25 -26 24 -26 24 -26
180 0 142 2 157 20 175 11 11 20 33 20 50 0 17 -9 39 -20 50 -11 11 -33 20
-50 20 -60 0 -93 -77 -51 -119 17 -17 19 -38 22 -178 3 -131 7 -164 22 -186
18 -27 84 -67 112 -67 11 0 15 -11 15 -46 0 -33 -4 -45 -12 -41 -7 3 -161 71
-342 152 -180 80 -336 145 -345 143 -14 -3 -16 -41 -19 -373 -2 -361 -3 -369
-24 -392 -13 -14 -21 -35 -20 -55 2 -63 77 -91 120 -45 29 31 28 72 -3 101
l-25 23 0 257 c0 247 1 256 19 256 11 0 33 -11 48 -24 28 -24 28 -24 31 -171
3 -146 3 -146 -22 -170 -32 -29 -35 -83 -8 -108 28 -25 87 -22 106 5 22 31 20
74 -4 98 -18 18 -20 33 -20 160 0 185 -15 222 -106 253 -38 14 -39 15 -42 65
-2 34 1 52 8 52 7 0 159 -65 338 -145 180 -80 336 -144 347 -143 20 3 20 10
23 362 l2 358 25 30 c31 37 32 62 0 93 -33 34 -77 33 -104 -1z m73 -39 c3 -9
-1 -18 -10 -22 -19 -7 -39 11 -30 26 10 16 33 13 40 -4z m-149 -175 c0 -22
-29 -18 -33 3 -3 14 1 18 15 15 10 -2 18 -10 18 -18z m-427 -923 c2 -12 -3
-17 -17 -17 -12 0 -21 6 -21 13 0 31 32 34 38 4z m-143 -167 c0 -22 -29 -18
-33 3 -3 14 1 18 15 15 10 -2 18 -10 18 -18z"/>
<path d="M746 1703 c-3 -4 -6 -187 -6 -406 1 -389 0 -400 -20 -422 -25 -27
-26 -76 -2 -98 28 -25 87 -22 106 5 23 32 20 65 -9 94 l-25 25 0 374 c0 206 3
375 8 375 4 0 135 -50 290 -111 277 -108 315 -118 299 -77 -5 14 -590 248
-618 248 -9 0 -19 -3 -23 -7z m41 -869 c8 -21 -13 -42 -28 -27 -13 13 -5 43
11 43 6 0 13 -7 17 -16z"/>
</g>
</svg>
